<svg width="21" height="21" viewBox="0 0 21 21" fill="none" xmlns="http://www.w3.org/2000/svg">
<path d="M19.7881 15.0058L16.9941 12.2118C15.9962 11.214 14.2999 11.6131 13.9008 12.9103C13.6014 13.8084 12.6036 14.3073 11.7055 14.1077C9.70982 13.6088 7.01564 11.0144 6.51672 8.91892C6.21736 8.02082 6.81607 7.02297 7.71413 6.72366C9.01133 6.32452 9.41047 4.62818 8.41262 3.63034L5.61865 0.836369C4.82038 0.137877 3.62296 0.137877 2.92447 0.836369L1.02857 2.73228C-0.86734 4.72797 1.22814 10.0165 5.91801 14.7064C10.6079 19.3963 15.8965 21.5916 17.8922 19.5959L19.7881 17.7C20.4866 16.9017 20.4866 15.7043 19.7881 15.0058Z" fill="white"/>
</svg>
